<?xml version="1.0" encoding="utf-8"?>
<!-- Generator: Adobe Illustrator 27.2.0, SVG Export Plug-In . SVG Version: 6.00 Build 0)  -->
<svg version="1.1" id="_レイヤー_2" xmlns="http://www.w3.org/2000/svg" xmlns:xlink="http://www.w3.org/1999/xlink" x="0px"
	 y="0px" viewBox="0 0 255 100" style="enable-background:new 0 0 255 100;" xml:space="preserve">
<style type="text/css">
	.st0{clip-path:url(#SVGID_00000148657851606661298540000007299948431087746462_);}
	.st1{enable-background:new    ;}
</style>
<g>
	<g>
		<g>
			<defs>
				<rect id="SVGID_1_" x="27.5" y="15" width="200" height="70"/>
			</defs>
			<clipPath id="SVGID_00000082339975438734015290000011533751768269628307_">
				<use xlink:href="#SVGID_1_"  style="overflow:visible;"/>
			</clipPath>
			<g style="clip-path:url(#SVGID_00000082339975438734015290000011533751768269628307_);">
				<path id="_ギター" d="M179.2,77.8c0,0,9.4-0.1,17.5,3.5c8.1,3.6,12.5,0.8,14.2,0s3.6-0.4,4.5,0.3s2.4,2.3,3.9,2.3
					s3.2,0.3,4.9-1.1s3.2-4.4,2.4-6.4s-2.7-2.7-2.7-2.7l-36.2-11c0,0-2.8,0.3-3.2,1c-0.4,0.7-1,2.8-5.1,2.8S76,65,76,65
					s-3.2-0.9-1-4.7c2.2-3.8,5.2-10,4.1-15.8s-5.2-8-10-8.9s-11,0.5-14.5,2s-10.4,4.9-14.4,4.5s-5.6-0.2-10.7-2.7
					c0,0-14-6.9-17.1-7.6s-8.2-2.3-11.9-2.3s-4.2-0.1-4.2-0.1s-7.9,0.8-12.8,4.7s-8.2,9.3-9.6,15s-1.5,14.1-1.5,14.1v16.9
					c0,0,0.2,13.1,2.4,18.1s4.5,9.2,7.5,11l7.2,3.9c0,0,11,4,22.5-0.5c11.5-4.5,22-9.6,23.2-9.8c0,0,5.9-1.6,12.6,1.2
					c6.7,2.7,14.2,6,20.3,4.9c6.2-1.1,5.8-1.7,5.8-1.7s4.1-1.7,3.9-4.6s-1.8-4.7-4.6-5.6s-11-2.7-12.8-7.9c-1.7-5.2,0.3-7.4,1.2-7.9
					c0.9-0.5,2.9-1.7,3.3-1.7s13.1-0.4,13.1-0.4L179.2,77.8L179.2,77.8z"/>
			</g>
		</g>
	</g>
	<g>
		<g class="st1">
			<path d="M89.9,47.1c0,0,2.4-0.4,3.2-0.6l0.3,1.8c-1.4,0.4-1.7,0.6-2.7,0.9c0,0,1,3.2,1.3,3.7l-2.6,0.8c-0.4-1.6-0.5-2.2-0.9-3.5
				l-3,0.5c0,0-0.5-1.2-0.8-2.1c0,0,2-0.4,3.4-0.6l-0.5-1.6c-0.9,0.2-1.6,0.5-3.1,0.8L84,44.7c0,0,1.8-0.3,3.1-0.5l-0.9-2.2l2.4-0.7
				c0,0,0.7,2.4,0.7,2.7c0,0,1.1-0.3,3.1-0.7l0.3,2.1c0,0-1.8,0.3-3.3,0.5L89.9,47.1z M93.6,43.6l-0.3-1.3l1.1-0.2v1.3
				C94.3,43.3,93.9,43.5,93.6,43.6z M95,43.4L94.8,42l1.1-0.2l-0.1,1.3C95.8,43.1,95.3,43.2,95,43.4z"/>
			<path d="M101.2,47.2c1.1-2.2,1.5-4.9,1.1-6.2l2.7,0.1c-0.1,1.3-0.1,1.9-0.5,2.7c0,0,3.7,0.1,6-0.1c0.1,2.7-0.8,8.9-8.2,9.8
				c1.9-1.2,3.2-2.6,3.7-3.6c-0.3-0.1-1.9-0.5-2.5-0.6l0.7-2c1,0.3,2.4,0.8,2.7,0.9c0.2-0.3,0.6-1.8,0.7-2.6c0,0-3.2,0.1-3.9,0
				C103.7,45.6,102.8,46.9,101.2,47.2z"/>
			<path d="M118.1,46.2c2.3,0,8.8,0.1,10.1-0.1l-0.2,2.3c0,0-5.2,0-9.6,0.1L118.1,46.2z"/>
		</g>
		<g class="st1">
			<path d="M149.2,50.8l-1.2,1.3l-3.2-3.2l-3.2,3.2l-1.2-1.2l3.2-3.2l-3.2-3.2l1.2-1.3l3.2,3.2l3.2-3.2l1.2,1.2l-3.2,3.2L149.2,50.8
				z"/>
		</g>
		<g class="st1">
			<path d="M161.7,45.3c0,0-1.1,0.5-2.5,0.4c1.4-1.2,3.6-3.7,3.7-3.9l1.6,1.4c0,0-0.6,1.1-1.6,1.8l0.3,7.3l-1.5,0
				C161.6,52.3,161.8,45.7,161.7,45.3z M169.9,47.1c-0.1,0.3-0.8,2.1-1.9,3.5c0,0,2,0.3,3-0.1l-0.7-1.1l1.5-0.7l1.7,3
				c-1,0.6-5.4,0.8-7.7,0.4c1.4-2.5,1.8-3.7,2-4.8l-2.9,0.1l0-2.1c2.4-0.1,6.1-0.1,8.3-0.2l0,2L169.9,47.1z M167.2,41.5l4.7,0l0,2
				c0,0-4.2,0-4.6,0L167.2,41.5z"/>
			<path d="M176.4,50.6c0,0,1-0.6,1.5-1.4l0.8,1.4C178.7,50.6,177.7,50.9,176.4,50.6z M182.7,47.5c0,0-3.8,0.4-5.2,0.1L179,45
				c0,0-1.2-1-1.5-1.4c0,0,2.3-2,2.4-2.4l1.2,1.3c0,0-1.1,0.7-2,1.1l1.6,0.9c0,0-0.8,1.5-1.3,2c0,0,1.6,0,2.2-0.2l-0.1-0.8l1.1-0.1
				L182.7,47.5z M179.5,48.6h1.2c0,0,0.1,3.6,0.2,3.9l-1.5,0C179.4,52.5,179.5,49,179.5,48.6z M182,49c0,0,1.2,1.2,1.5,1.2
				c0,0-1.3,0.8-2.1-0.2L182,49z M186,45.6c0,0,1.6,0.1,2.6-0.1l-0.3-0.7l1-0.5l1,1.8c0,0-3.1,1.2-5.9,0.1c0,0,1-1.9,1.3-2.5
				c0,0-2.3,0.1-2.5,0.1l-0.1-1.6l2.8,0l-0.1-2l2.1,0.1l-0.3,1.9l3-0.1l-0.1,1.5c0,0-2.7,0.1-3.1,0.1
				C187.4,43.7,186.8,44.9,186,45.6z M183.8,52.2c0,0,0.8-2.6,0.7-3.9l1.6,0.4C186.1,48.6,185.9,51,183.8,52.2z M190.2,50.1l1.5,2.2
				c0,0-1,0.8-4.5,0.2c0,0,0-4.7,0-4.9l1.6,0l-0.2,4c0,0,1.1,0,1.6-0.2V50.1z"/>
			<path d="M195.3,51.6l0-2.4l4.7-0.4c0-0.1-0.1-4.5-0.1-4.5s-2.8,0-3.6,0l-0.1-2.1c0,0,8.7-0.1,9.4-0.2l-0.2,2.6
				c0,0-2.6,0.1-3.6,0.1l-0.1,3.9l4.7,0.3l-0.3,2.8C206.3,51.7,199.5,51.7,195.3,51.6z"/>
			<path d="M212.6,41.4l1.8,0l0-1l1.2-0.1v1.2l1.5-0.1l-0.2,1.4c0,0-1.1-0.1-1.4,0l-0.1,0.9l-1,0.1l0-0.9c0,0-1.2,0.2-1.9,0.2
				L212.6,41.4z M218.3,48.8c-0.2,0.4-1,1.8-1.6,2.5c0,0,1.9,0.3,3-0.1l-0.7-1.3l1.4-0.5c0,0,1.5,2.2,1.8,3.2
				c-1.4,0.3-4.5,0.9-7.9-0.1c1.4-1.3,2.2-2.6,2.4-3.6c-1.7,0-3,0-3.6,0l-0.1-1.8c0,0,7.8,0,10.3-0.1l-0.1,1.6
				C220,48.8,219.2,48.8,218.3,48.8z M216.1,44.5c0,0,3.1,0,4.3,0l0.1,1.6c0,0-3.8,0.2-4.4,0L216.1,44.5z M223.7,43l-1.2,0l-0.1,0.7
				c0,0-1,0.1-1.3,0.1l0-0.9c0,0-1,0.1-1.6,0.1l-0.1-1.3c0,0,1.5-0.1,1.9-0.1l0-1.1l1.1-0.1l0,1.3c0,0,1.2,0.1,1.4,0L223.7,43z"/>
		</g>
	</g>
</g>
</svg>
